<svg id="Layer_1" data-name="Layer 1" xmlns="http://www.w3.org/2000/svg" viewBox="0 0 424.95 347.14"><defs><style>.cls-1{fill:#eda146;}.cls-2{fill:#e67c3b;}.cls-3{fill:#e25632;}.cls-4{fill:#3a291e;}</style></defs><path class="cls-1" d="M425,212.48v1.57H252.27c0-.52,0-1.05,0-1.57a39.84,39.84,0,0,0-79.68,0v0c0,.52,0,1.05.05,1.57H0v-1.57C0,95.12,95.14,0,212.48,0S425,95.12,425,212.48Z"/><path class="cls-2" d="M371.84,212.48c0,.52,0,1.05,0,1.57H252.27c0-.52,0-1.05,0-1.57a39.84,39.84,0,0,0-79.68,0v0c0,.52,0,1.05.05,1.57H53.14c0-.52,0-1.05,0-1.57a159.37,159.37,0,1,1,318.73,0Z"/><path class="cls-3" d="M318.72,212.48v1.57H252.27c0-.52,0-1.05,0-1.57a39.84,39.84,0,0,0-79.68,0v0c0,.52,0,1.05.05,1.57H106.25v-1.57a106.24,106.24,0,1,1,212.47,0Z"/><path class="cls-4" d="M43.34,347a36.83,36.83,0,0,1-8.76-.91q-3.61-.9-6.08-1.77a12.94,12.94,0,0,0-4.13-.85A4.6,4.6,0,0,0,22,344a15.09,15.09,0,0,0-1.81,1.27,12.28,12.28,0,0,1-1.84,1.27,4.75,4.75,0,0,1-2.39.58,4.94,4.94,0,0,1-3.91-1.56A11,11,0,0,1,10,340.69L6,321.52a6.3,6.3,0,0,1,.65-4.34,5.84,5.84,0,0,1,3.62-2.61,6.12,6.12,0,0,1,4.31.22c1.13.57,2.3,1.93,3.51,4a38.43,38.43,0,0,0,6.44,8.9,22.38,22.38,0,0,0,7.75,5.13,25.46,25.46,0,0,0,9.34,1.66q6.07,0,9.77-3.07a10.08,10.08,0,0,0,3.69-8.14,12.49,12.49,0,0,0-1.56-6.19c-1-1.86-3.18-3.69-6.44-5.49a92,92,0,0,0-14.72-6q-10.64-3.48-16.83-8.07a26.79,26.79,0,0,1-8.87-10.71A34,34,0,0,1,4,273.08,30.54,30.54,0,0,1,8,257.34a28.73,28.73,0,0,1,11.51-10.89,36.77,36.77,0,0,1,17.52-4,32.78,32.78,0,0,1,9.66,1.09,63.48,63.48,0,0,1,6.59,2.31A12.38,12.38,0,0,0,58,247a3.19,3.19,0,0,0,2.75-1.19,29.12,29.12,0,0,1,1.92-2.39,4.14,4.14,0,0,1,3.29-1.2A4.76,4.76,0,0,1,69.93,244a21.13,21.13,0,0,1,2.86,6.62l5.86,19.61a7.87,7.87,0,0,1,.15,5.14,5.37,5.37,0,0,1-3.69,3,6.17,6.17,0,0,1-4.82-.18,8.29,8.29,0,0,1-3.37-3.87,37.21,37.21,0,0,0-7.31-10.93,28.3,28.3,0,0,0-9.23-6.29,26.52,26.52,0,0,0-10.17-2,12.69,12.69,0,0,0-9.15,3.29,11.07,11.07,0,0,0-3.44,8.36,11.87,11.87,0,0,0,1.63,6.12q1.63,2.78,6.76,5.72a112,112,0,0,0,15.7,6.83q10.22,3.76,16.1,8.29A26.19,26.19,0,0,1,76.2,303.9,32.36,32.36,0,0,1,78.7,317a27.71,27.71,0,0,1-4.3,15.23A30,30,0,0,1,62.22,343Q54.33,347,43.34,347Z"/><path class="cls-4" d="M89.94,326.34V302.45a8.71,8.71,0,0,0-.54-3.65,4,4,0,0,0-1.85-1.69l-1.74-.36a7,7,0,0,1-2.27-2,4.43,4.43,0,0,1-.69-2.53,4.7,4.7,0,0,1,1.08-3.11,9.52,9.52,0,0,1,3.77-2.39l11.72-4.65a45.88,45.88,0,0,1,5.1-1.77,13.84,13.84,0,0,1,3.44-.47,4.31,4.31,0,0,1,3.51,1.44,5.84,5.84,0,0,1,1.19,3.84v35.39c0,3.23.67,5.68,2,7.35a6.48,6.48,0,0,0,5.33,2.49,11.15,11.15,0,0,0,4.84-1.12,18.07,18.07,0,0,0,4.86-3.5l2.17-2,4.35,5.49-2.83,3q-7.83,8.28-14.15,11.59a26.44,26.44,0,0,1-12.2,3.33,15.46,15.46,0,0,1-12.45-5.49Q89.94,336.13,89.94,326.34Zm40.53,8.54V331.7l-.66-.29v-29a8.3,8.3,0,0,0-.57-3.65,4.34,4.34,0,0,0-1.81-1.69l-1.81-.36a7,7,0,0,1-2.28-2,4.43,4.43,0,0,1-.69-2.53,4.71,4.71,0,0,1,1.09-3.11,9.45,9.45,0,0,1,3.83-2.39l11.73-4.65a44.71,44.71,0,0,1,5.07-1.77,13.47,13.47,0,0,1,3.4-.47,4.39,4.39,0,0,1,3.58,1.44,5.84,5.84,0,0,1,1.19,3.84v43.22a13,13,0,0,0,.51,4.41,3.51,3.51,0,0,0,1.52,1.81l1.3.58a7.49,7.49,0,0,1,2.17,2.21,5.61,5.61,0,0,1,.73,3,4.73,4.73,0,0,1-1.38,3.62,5.32,5.32,0,0,1-3.83,1.3H141c-3.42,0-6-1-7.85-2.93A10.58,10.58,0,0,1,130.47,334.88Z"/><path class="cls-4" d="M191.69,285.16v43.21a18.83,18.83,0,0,0,.4,4.74,3.6,3.6,0,0,0,1.48,2.06l1.45.73a5.33,5.33,0,0,1,2.31,4.48q0,4.92-4.7,4.92H167.88a5.33,5.33,0,0,1-3.8-1.3,4.64,4.64,0,0,1-1.41-3.62,5.46,5.46,0,0,1,.76-3,8.45,8.45,0,0,1,2.13-2.21l1.38-.58a3.63,3.63,0,0,0,1.55-1.84,13.81,13.81,0,0,0,.47-4.38V302.45a8.12,8.12,0,0,0-.58-3.65,4.22,4.22,0,0,0-1.81-1.69l-1.81-.36a7,7,0,0,1-2.28-2,4.35,4.35,0,0,1-.68-2.53,4.7,4.7,0,0,1,1.08-3.11,9.57,9.57,0,0,1,3.84-2.39l11.72-4.65a46.12,46.12,0,0,1,5.07-1.77,13.47,13.47,0,0,1,3.4-.47,4.38,4.38,0,0,1,3.58,1.44A5.82,5.82,0,0,1,191.69,285.16ZM189.58,303l-4.27-5.21,2.82-3q7.89-8.4,14.4-11.79A27.15,27.15,0,0,1,215,279.66q8.33,0,13,5.43t4.65,15.06v28.22a13.86,13.86,0,0,0,.47,4.38,3.6,3.6,0,0,0,1.56,1.84l1.37.58a8.49,8.49,0,0,1,2.14,2.21,5.55,5.55,0,0,1,.76,3,4.68,4.68,0,0,1-1.41,3.62,5.37,5.37,0,0,1-3.81,1.3H209q-4.69,0-4.7-4.92a5.33,5.33,0,0,1,2.31-4.48l1.45-.73a3.55,3.55,0,0,0,1.48-2.06,18.83,18.83,0,0,0,.4-4.74V305.93c0-3.09-.69-5.46-2.06-7.09a7.24,7.24,0,0,0-5.82-2.46,13.72,13.72,0,0,0-5.29,1.09,15.53,15.53,0,0,0-5,3.47Z"/><path class="cls-4" d="M271.58,285.16v43.21a18.83,18.83,0,0,0,.4,4.74,3.64,3.64,0,0,0,1.48,2.06l1.45.73a5.36,5.36,0,0,1,2.32,4.48q0,4.92-4.71,4.92H247.77A5.39,5.39,0,0,1,244,344a4.71,4.71,0,0,1-1.41-3.62,5.55,5.55,0,0,1,.76-3,8.49,8.49,0,0,1,2.14-2.21l1.37-.58a3.7,3.7,0,0,0,1.56-1.84,13.81,13.81,0,0,0,.47-4.38V302.45a8.12,8.12,0,0,0-.58-3.65,4.22,4.22,0,0,0-1.81-1.69l-1.81-.36a7,7,0,0,1-2.28-2,4.43,4.43,0,0,1-.69-2.53,4.71,4.71,0,0,1,1.09-3.11,9.5,9.5,0,0,1,3.84-2.39l11.72-4.65a45.4,45.4,0,0,1,5.07-1.77,13.47,13.47,0,0,1,3.4-.47,4.39,4.39,0,0,1,3.58,1.44A5.88,5.88,0,0,1,271.58,285.16ZM269.47,303l-4.27-5.21,2.83-3q7.88-8.4,14.4-11.79a26.89,26.89,0,0,1,12.44-3.41q8.33,0,13,5.43t4.65,15v28.23a13.86,13.86,0,0,0,.47,4.38,3.63,3.63,0,0,0,1.55,1.84l1.38.58a8.22,8.22,0,0,1,2.11,2.21,5.44,5.44,0,0,1,.76,3,4.68,4.68,0,0,1-1.41,3.62,5.36,5.36,0,0,1-3.8,1.3H288.88q-4.71,0-4.71-4.92a5.39,5.39,0,0,1,2.32-4.49l1.45-.72a3.63,3.63,0,0,0,1.48-2.06,18.88,18.88,0,0,0,.4-4.74V305.93c0-3.09-.69-5.46-2.06-7.09a7.26,7.26,0,0,0-5.83-2.46,13.71,13.71,0,0,0-5.28,1.09,15.66,15.66,0,0,0-5,3.47Z"/><path class="cls-4" d="M351.55,285.16v43.21a13.52,13.52,0,0,0,.47,4.34,3.59,3.59,0,0,0,1.55,1.88l1.31.58a8.37,8.37,0,0,1,2.11,2.21,5.46,5.46,0,0,1,.76,3,4.73,4.73,0,0,1-1.38,3.62,5.32,5.32,0,0,1-3.83,1.3h-24.8a5.36,5.36,0,0,1-3.84-1.3,4.76,4.76,0,0,1-1.37-3.62,5.7,5.7,0,0,1,.72-3,7.49,7.49,0,0,1,2.17-2.21l1.38-.58a4,4,0,0,0,1.52-1.88,12.76,12.76,0,0,0,.5-4.34V302.45a8.3,8.3,0,0,0-.57-3.65,4.27,4.27,0,0,0-1.88-1.69l-1.74-.36a6.94,6.94,0,0,1-2.28-2,4.43,4.43,0,0,1-.69-2.53,4.69,4.69,0,0,1,1.07-3.11,9.47,9.47,0,0,1,3.76-2.39l11.8-4.65a46.81,46.81,0,0,1,5.07-1.78,13.93,13.93,0,0,1,3.4-.46,4.4,4.4,0,0,1,3.54,1.44A5.77,5.77,0,0,1,351.55,285.16Zm-11.87-12.28q-6.23,0-9.88-3.44a13.5,13.5,0,0,1,0-18.46q3.66-3.43,9.88-3.44t9.91,3.43a13.59,13.59,0,0,1,0,18.47Q346,272.88,339.68,272.88Z"/><path class="cls-4" d="M423.48,304.05c0,3.62-.94,6.39-2.82,8.33s-4.53,2.89-8,2.89H376.44V307h19.83q4.13,0,4.13-4.2c0-3.86-.81-6.76-2.43-8.72a7.4,7.4,0,0,0-5.91-2.93,8.35,8.35,0,0,0-5.18,1.73,11.56,11.56,0,0,0-3.61,5.22,24.86,24.86,0,0,0-1.34,8.83q0,11.65,5.17,17.51t13.71,5.86a20.07,20.07,0,0,0,8.69-1.92,20.77,20.77,0,0,0,6.8-5,13.84,13.84,0,0,1,2.46-1.84,3.9,3.9,0,0,1,1.88-.54,2.36,2.36,0,0,1,1.92.93,4.7,4.7,0,0,1,.76,3,19,19,0,0,1-3.73,10.68,25.81,25.81,0,0,1-10,8.14,34.82,34.82,0,0,1-15.27,3.11,35.2,35.2,0,0,1-17.4-4.13,29,29,0,0,1-11.51-11.53,35.32,35.32,0,0,1-4.09-17.26,38.2,38.2,0,0,1,3.91-17.48,29.43,29.43,0,0,1,11.47-12.19q7.57-4.48,18.57-4.49a32.08,32.08,0,0,1,15,3.3,24.46,24.46,0,0,1,9.77,8.83A22.81,22.81,0,0,1,423.48,304.05Z"/></svg>